<?xml version="1.0" encoding="utf-8"?>
<!-- Generator: Adobe Illustrator 14.0.0, SVG Export Plug-In . SVG Version: 6.00 Build 43363)  -->
<!DOCTYPE svg PUBLIC "-//W3C//DTD SVG 1.1//EN" "http://www.w3.org/Graphics/SVG/1.1/DTD/svg11.dtd">
<svg version="1.1" id="Ebene_1" xmlns="http://www.w3.org/2000/svg" xmlns:xlink="http://www.w3.org/1999/xlink" x="0px" y="0px"
	 width="2500px" height="2500px" viewBox="0 0 2500 2500" enable-background="new 0 0 2500 2500" xml:space="preserve">
<path fill="#2062AF" d="M1882.25,2169.831l-632.26,170.242l-632.269-170.242L471.82,589.182h1556.35L1882.25,2169.831z"/>
<path fill="#3C9CD7" d="M1249.986,717.212v1487.08l1.43,0.39l511.661-137.778l118.102-1349.691H1249.986L1249.986,717.212z"/>
<path d="M891.156,356.952v-94.08h137.263V159.926H788.21v290.966h240.209v-93.94H891.156z M1275.34,262.872h95.965V159.926h-240.232
	v102.946c32.14,32.14,48.901,47.523,95.385,94.006c-27.173,0-95.385,0.097-95.385,0.093v93.922h240.232v-93.94L1275.34,262.872
	L1275.34,262.872z M1615.825,262.872h95.96V159.926h-240.241v102.946c32.14,32.14,48.91,47.523,95.394,94.006
	c-27.164,0-95.394,0.097-95.394,0.093v93.922h240.245v-93.94L1615.825,262.872L1615.825,262.872z"/>
<path fill="#FFFFFF" d="M1249.425,1112.438l-452.529,188.467l15.007,186.596l437.522-187.069l465.41-198.984l19.296-190.88
	L1249.425,1112.438L1249.425,1112.438z"/>
<linearGradient id="SVGID_1_" gradientUnits="userSpaceOnUse" x1="-180.6733" y1="133.0947" x2="-180.6733" y2="52.2939" gradientTransform="matrix(4.6418 0 0 4.6418 1861.8079 869.7003)">
	<stop  offset="0.387" style="stop-color:#D1D3D4;stop-opacity:0"/>
	<stop  offset="1" style="stop-color:#D1D3D4"/>
</linearGradient>
<path fill="url(#SVGID_1_)" d="M796.891,1300.904l15.007,186.596l437.522-187.069v-187.993L796.891,1300.904z"/>
<linearGradient id="SVGID_2_" gradientUnits="userSpaceOnUse" x1="-79.7168" y1="92.7939" x2="-79.7168" y2="8.8047" gradientTransform="matrix(4.6418 0 0 4.6418 1861.8079 869.7003)">
	<stop  offset="0.387" style="stop-color:#D1D3D4;stop-opacity:0"/>
	<stop  offset="1" style="stop-color:#D1D3D4"/>
</linearGradient>
<path fill="url(#SVGID_2_)" d="M1734.131,910.57l-484.706,201.867v187.993l465.41-198.984L1734.131,910.57z"/>
<linearGradient id="SVGID_3_" gradientUnits="userSpaceOnUse" x1="-229.269" y1="169.1328" x2="-35.2041" y2="169.1328" gradientTransform="matrix(4.6418 0 0 4.6418 1861.8079 869.7003)">
	<stop  offset="0" style="stop-color:#E8E7E5"/>
	<stop  offset="1" style="stop-color:#FFFFFF"/>
</linearGradient>
<path fill="url(#SVGID_3_)" d="M797.587,1300.904l15.012,186.596l671.32,2.14l-15.017,248.792l-220.903,62.19l-212.353-53.617
	l-12.867-154.424H825.466l25.738,298.12l398.939,117.957l396.776-115.817l51.479-591.937H797.587z"/>
<path opacity="0.05" enable-background="new    " d="M1249.425,1300.904H796.896l15.007,186.596l437.522,1.397V1300.904
	L1249.425,1300.904z M1249.425,1800.028l-2.145,0.599l-212.325-53.617l-12.867-154.424h-197.31l25.734,298.12l398.912,117.957
	V1800.028z"/>
<linearGradient id="SVGID_4_" gradientUnits="userSpaceOnUse" x1="-238.1982" y1="29.3657" x2="-27.5059" y2="29.3657" gradientTransform="matrix(4.6418 0 0 4.6418 1861.8079 869.7003)">
	<stop  offset="0" style="stop-color:#E8E7E5"/>
	<stop  offset="1" style="stop-color:#FFFFFF"/>
</linearGradient>
<path fill="url(#SVGID_4_)" d="M756.14,910.57h977.991l-19.296,190.881H779.729L756.14,910.57L756.14,910.57z"/>
<path opacity="0.05" enable-background="new    " d="M1249.425,910.57H756.141l23.589,190.881h469.695V910.57L1249.425,910.57z"/>
</svg>
