<?xml version="1.0" encoding="utf-8"?>
<!-- Generator: Adobe Illustrator 14.0.0, SVG Export Plug-In . SVG Version: 6.00 Build 43363)  -->
<!DOCTYPE svg PUBLIC "-//W3C//DTD SVG 1.1//EN" "http://www.w3.org/Graphics/SVG/1.1/DTD/svg11.dtd">
<svg version="1.1" id="Ebene_1" xmlns="http://www.w3.org/2000/svg" xmlns:xlink="http://www.w3.org/1999/xlink" x="0px" y="0px"
	 width="2500px" height="2438px" viewBox="0 0 2500 2438" enable-background="new 0 0 2500 2438" xml:space="preserve">
<g>
	
		<radialGradient id="SVGID_1_" cx="665.8945" cy="1290.4463" r="0.7603" gradientTransform="matrix(2291.6716 0 0 -2218.7549 -1525153.375 2863788.5)" gradientUnits="userSpaceOnUse">
		<stop  offset="0" style="stop-color:#4B2B36;stop-opacity:0.98"/>
		<stop  offset="1" style="stop-color:#250012"/>
	</radialGradient>
	<path fill="url(#SVGID_1_)" d="M104.164,104.411h2291.673v2229.174H104.164V104.411z"/>
	<path fill="#FF408C" d="M104.164,104.411h2291.673v2229.174H104.164V104.411z M-0.002,2437.754h2500.004V0.246H-0.002V2437.754z
		 M1581.252,1012.746c-15.627-7.291-36.461-10.415-61.463-10.415c-134.373,0-228.123,103.128-228.123,275.001
		c0,195.832,95.833,274.997,215.629,274.997c26.039,0,53.123-3.125,73.957-12.498V1012.746z M1526.039,842.956
		c21.876,0,34.379,0,55.209,2.083V567.955c0-7.291,5.208-10.416,10.411-10.416h168.753c8.332,0,10.415,3.125,10.415,8.332v973.964
		c0,29.163,0,65.625,5.208,105.207c0,7.291-2.083,8.332-9.374,12.502c-89.584,42.707-184.371,61.459-272.914,61.459
		c-230.207,0-394.794-142.706-394.794-433.335C1097.916,1036.705,1262.498,842.955,1526.039,842.956L1526.039,842.956z
		 M914.586,1689.836c0,10.411-2.083,13.54-13.544,13.54H740.625c-10.415,0-13.544-5.208-13.544-13.54V571.079
		c0-10.415,5.208-13.544,13.544-13.544h161.458c8.333,0,12.503,3.124,12.503,12.502V1689.836z"/>
</g>
</svg>
