<?xml version="1.0" encoding="utf-8"?>
<!-- Generator: Adobe Illustrator 14.0.0, SVG Export Plug-In . SVG Version: 6.00 Build 43363)  -->
<!DOCTYPE svg PUBLIC "-//W3C//DTD SVG 1.1//EN" "http://www.w3.org/Graphics/SVG/1.1/DTD/svg11.dtd">
<svg version="1.1" id="Ebene_1" xmlns="http://www.w3.org/2000/svg" xmlns:xlink="http://www.w3.org/1999/xlink" x="0px" y="0px"
	 width="141.732px" height="141.732px" viewBox="0 0 141.732 141.732" enable-background="new 0 0 141.732 141.732"
	 xml:space="preserve">
<polygon fill="#E6A329" points="111.142,36.396 70.867,36.396 30.591,36.396 38.139,118.281 70.867,127.56 103.582,118.281 "/>
<polygon fill="#F1BF22" points="70.866,43.066 70.866,120.625 97.368,113.112 103.822,43.066 "/>
<polygon fill="#FFFFFF" points="91.951,53.114 51.188,53.114 48.355,83.774 48.415,83.582 83.041,83.582 81.911,96.551 
	70.866,99.735 59.652,96.503 58.979,88.654 48.799,88.654 50.254,104.339 70.866,110.192 91.479,104.339 94.315,73.559 
	57.573,73.559 58.041,63.294 83.544,63.294 83.919,69.169 94.19,69.169 "/>
<path fill="#EBEBEB" d="M70.867,53.114H51.188l-2.833,30.66l0.061-0.192h22.451V73.559H58.991l0.468-10.264h11.408V53.114z
	 M58.979,88.654h-10.18l1.454,15.685l20.613,5.841V99.735l-11.214-3.232L58.979,88.654z"/>
<polygon points="63.028,24.317 55.865,24.317 55.865,29.461 63.028,29.461 66.863,29.461 68.161,29.461 68.161,14.173 
	63.028,14.173 "/>
<g>
	<path d="M85.868,14.251H73.374v5.354c1.67,1.671,2.543,2.471,4.961,4.889c-1.414,0-4.961,0.005-4.961,0.005v4.884h12.494v-4.885
		l-4.99-4.893h4.99V14.251z"/>
</g>
</svg>
