<?xml version="1.0" encoding="utf-8"?>
<!-- Generator: Adobe Illustrator 14.0.0, SVG Export Plug-In . SVG Version: 6.00 Build 43363)  -->
<!DOCTYPE svg PUBLIC "-//W3C//DTD SVG 1.1//EN" "http://www.w3.org/Graphics/SVG/1.1/DTD/svg11.dtd">
<svg version="1.1" id="Ebene_1" xmlns="http://www.w3.org/2000/svg" xmlns:xlink="http://www.w3.org/1999/xlink" x="0px" y="0px"
	 width="900px" height="900px" viewBox="-379.134 -379.134 900 900" enable-background="new -379.134 -379.134 900 900"
	 xml:space="preserve">
<polygon fill="#E6A329" points="320.866,-143.097 70.869,-143.097 -179.134,-143.097 -132.277,365.177 70.869,422.776 
	273.936,365.177 "/>
<polygon fill="#F1BF22" points="70.864,-101.695 70.864,379.725 235.366,333.093 275.427,-101.695 "/>
<polygon fill="#FFFFFF" points="201.742,-39.326 -51.28,-39.326 -68.865,150.987 -68.495,149.793 146.434,149.793 139.422,230.293 
	70.864,250.059 1.257,229.995 -2.92,181.277 -66.113,181.277 -57.081,278.635 70.864,314.969 198.814,278.635 216.417,87.582 
	-11.649,87.582 -8.745,23.861 149.556,23.861 151.885,60.328 215.641,60.328 "/>
<path fill="#EBEBEB" d="M70.869-39.326H-51.28l-17.585,190.313l0.376-1.194H70.869V87.582H-2.847l2.903-63.715h70.813V-39.326z
	 M-2.92,181.277h-63.193l9.026,97.357l127.951,36.261v-64.836L1.257,229.995L-2.92,181.277z"/>
<polygon points="22.212,-218.074 -22.25,-218.074 -22.25,-186.147 22.212,-186.147 46.016,-186.147 54.073,-186.147 
	54.073,-281.043 22.212,-281.043 "/>
<g>
	<path d="M163.983-280.558H86.429v33.236c10.366,10.372,15.785,15.336,30.794,30.345c-8.777,0-30.794,0.03-30.794,0.03v30.314
		h77.554v-30.32l-30.975-30.369h30.975V-280.558L163.983-280.558z"/>
</g>
</svg>
