<?xml version="1.0" encoding="utf-8"?>
<!-- Generator: Adobe Illustrator 14.0.0, SVG Export Plug-In . SVG Version: 6.00 Build 43363)  -->
<!DOCTYPE svg PUBLIC "-//W3C//DTD SVG 1.1//EN" "http://www.w3.org/Graphics/SVG/1.1/DTD/svg11.dtd">
<svg version="1.1" id="Ebene_1" xmlns="http://www.w3.org/2000/svg" xmlns:xlink="http://www.w3.org/1999/xlink" x="0px" y="0px"
	 width="300px" height="300px" viewBox="1100 636.5 300 300" enable-background="new 1100 636.5 300 300" xml:space="preserve">
<path fill="#FFFFFF" d="M1209.255,723.571c5.994,0,11.459,0.528,16.395,1.587c4.937,1.058,9.167,2.793,12.693,5.2
	c3.525,2.41,6.258,5.613,8.198,9.609c1.939,3.997,2.909,8.932,2.909,14.809c0,6.347-1.44,11.636-4.319,15.866
	c-2.881,4.231-7.14,7.697-12.781,10.401c7.756,2.234,13.544,6.144,17.365,11.724c3.816,5.584,5.731,12.313,5.731,20.186
	c0,6.347-1.234,11.842-3.704,16.485c-2.466,4.645-5.789,8.434-9.958,11.368c-4.173,2.939-8.933,5.112-14.28,6.525
	c-5.38,1.413-10.921,2.123-16.483,2.113h-60.999V723.571H1209.255z M1205.73,774.521c4.936,0,8.99-1.175,12.164-3.526
	c3.173-2.35,4.759-6.17,4.759-11.459c0-2.937-0.528-5.348-1.586-7.228c-1.058-1.879-2.468-3.352-4.231-4.407
	c-1.763-1.059-3.791-1.79-6.082-2.205c-2.357-0.416-4.747-0.623-7.14-0.616H1177.7v29.442L1205.73,774.521L1205.73,774.521z
	 M1207.316,827.936c2.702,0,5.289-0.266,7.756-0.794c2.468-0.529,4.641-1.411,6.523-2.646c1.878-1.231,3.377-2.908,4.495-5.024
	c1.116-2.114,1.674-4.817,1.674-8.109c0-6.462-1.823-11.075-5.465-13.838c-3.645-2.762-8.463-4.144-14.456-4.144H1177.7v34.553
	L1207.316,827.936L1207.316,827.936z M1290.277,825.292c3.76,3.646,9.167,5.465,16.219,5.465c5.052,0,9.401-1.262,13.044-3.79
	c3.644-2.523,5.877-5.199,6.699-8.021h22.036c-3.524,10.93-8.933,18.747-16.218,23.446c-7.289,4.702-16.104,7.052-26.445,7.052
	c-7.169,0-13.634-1.146-19.393-3.438c-5.76-2.291-10.638-5.553-14.631-9.784c-3.996-4.229-7.082-9.28-9.256-15.159
	c-2.176-5.875-3.261-12.34-3.261-19.393c0-6.814,1.114-13.16,3.35-19.038c2.23-5.875,5.402-10.958,9.521-15.25
	c4.11-4.288,9.02-7.667,14.72-10.136c5.699-2.468,12.017-3.701,18.951-3.701c7.758,0,14.515,1.498,20.275,4.495
	c5.757,2.996,10.488,7.026,14.191,12.075c3.702,5.054,6.374,10.814,8.022,17.276c1.646,6.466,2.23,13.222,1.764,20.273h-65.758
	C1284.46,815.771,1286.514,821.65,1290.277,825.292L1290.277,825.292z M1318.571,777.341c-2.996-3.29-7.552-4.937-13.661-4.937
	c-3.997,0-7.316,0.678-9.96,2.027c-2.645,1.354-4.762,3.025-6.349,5.024c-1.585,2-2.704,4.116-3.348,6.346
	c-0.647,2.234-1.03,4.232-1.147,5.995h40.724C1323.655,785.449,1321.569,780.632,1318.571,777.341z M1279.832,729.962h50.881v14.108
	h-50.881V729.962z"/>
</svg>
