<?xml version="1.0" encoding="utf-8"?>
<!-- Generator: Adobe Illustrator 22.0.1, SVG Export Plug-In . SVG Version: 6.00 Build 0)  -->
<svg version="1.1" id="Ebene_2" xmlns="http://www.w3.org/2000/svg" xmlns:xlink="http://www.w3.org/1999/xlink" x="0px" y="0px"
	 viewBox="0 0 368 155.9" enable-background="new 0 0 368 155.9" xml:space="preserve">
<g>
	<path fill="#58585A" d="M180.1,79.1V27.5h12.3c6,0,10.7,1.9,14,5.7c3.3,3.8,5,9.1,5,15.9v8.6c0,6.8-1.7,12.1-5.1,15.8
		c-3.4,3.7-8.3,5.6-14.7,5.6H180.1z M186.6,33.1v40.5h5.2c4.6,0,7.9-1.3,10-3.9s3.2-6.5,3.2-11.6v-9.2c0-5.4-1-9.4-3.1-12
		c-2.1-2.5-5.3-3.8-9.5-3.8H186.6z"/>
	<path fill="#58585A" d="M228.4,79.1h-6.5V27.5h6.5V79.1z"/>
	<path fill="#58585A" d="M255.3,58.3h-9.1v20.9h-6.5V27.5h14.5c5.1,0,8.9,1.3,11.5,4c2.6,2.6,3.9,6.5,3.9,11.6c0,3.2-0.7,6-2.1,8.3
		c-1.4,2.4-3.4,4.2-6,5.4l10,21.9v0.4h-7L255.3,58.3z M246.3,52.7h7.9c2.7,0,4.9-0.9,6.5-2.6c1.6-1.8,2.4-4.1,2.4-7
		c0-6.6-3-9.9-9-9.9h-7.8V52.7z"/>
	<path fill="#58585A" d="M289.8,55.4l-5.1,6.1v17.7h-6.5V27.5h6.5v24.9l4.3-5.6l13.9-19.3h7.8l-16.8,22.7L312,79.1h-7.8L289.8,55.4z
		"/>
</g>
<g>
	<path fill="#58585A" d="M180.1,127.9V90.7h11.5c3.9,0,6.8,0.9,8.9,2.6c2,1.7,3,4.3,3,7.6c0,1.9-0.4,3.5-1.3,4.9
		c-0.8,1.4-2,2.4-3.4,3c1.7,0.5,3,1.4,3.9,2.9c0.9,1.4,1.4,3.2,1.4,5.3c0,3.6-1,6.3-3,8.2c-2,1.8-4.9,2.8-8.6,2.8H180.1z
		 M187.7,106.2h3.9c2.9,0,4.4-1.5,4.4-4.6c0-1.7-0.3-2.9-1-3.6c-0.7-0.7-1.8-1.1-3.3-1.1h-4V106.2z M187.7,111.7v9.9h4.8
		c1.3,0,2.4-0.4,3.1-1.3c0.7-0.8,1-2,1-3.6c0-3.3-1.2-5.1-3.6-5.1H187.7z"/>
	<path fill="#58585A" d="M227.3,120.3H217l-2,7.6h-7.9l11.6-37.2h6.9l11.7,37.2h-8L227.3,120.3z M218.7,114h7l-3.5-13.3L218.7,114z"
		/>
	<path fill="#58585A" d="M248.6,127.9h-7.5V90.7h7.5V127.9z"/>
	<path fill="#58585A" d="M280.2,123.7c-1.4,1.6-3.2,2.7-5.3,3.5c-2.1,0.8-4.4,1.2-6.9,1.2c-4.3,0-7.6-1.3-10-4
		c-2.4-2.6-3.6-6.5-3.7-11.6v-6.7c0-5.1,1.1-9.1,3.4-11.8c2.2-2.8,5.5-4.2,9.8-4.2c4,0,7.1,1,9.1,3c2.1,2,3.2,5.1,3.6,9.4h-7.3
		c-0.2-2.4-0.7-4-1.5-4.8c-0.8-0.9-2-1.3-3.7-1.3c-2,0-3.5,0.7-4.4,2.2c-0.9,1.5-1.4,3.8-1.4,7.1v6.7c0,3.4,0.5,5.9,1.5,7.4
		c1,1.5,2.7,2.3,5,2.3c1.5,0,2.7-0.3,3.6-0.9l0.7-0.5V114h-5.3v-5.7h12.8V123.7z"/>
	<path fill="#58585A" d="M304.7,111.8H293v9.9h13.9v6.2h-21.4V90.7h21.3v6.3H293v8.8h11.7V111.8z"/>
	<path fill="#58585A" d="M337.2,127.9h-7.5l-11-24.4v24.4h-7.5V90.7h7.5l11,24.4V90.7h7.5V127.9z"/>
	<path fill="#58585A" d="M366.6,96.9h-9.2v30.9h-7.5V96.9h-9v-6.3h25.8V96.9z"/>
</g>
<g>
	<circle fill="#FFFFFF" cx="77.5" cy="78.9" r="72.9"/>
	<g id="_x3C_Smoke_x5F_2_x3E__1_">
		<path fill="#B3B3B3" d="M124,48c-4.3,0-6,0-6,0s-7,0.6-7-4.7c0-3.5-2.9-5.4-7-5.4c-4,0-23.5,0-27.8,0c-5.5,0-5.8-3.1-5.8-3.1
			s-0.6-4.7-6.5-4.7c-0.9,0-5.2,0-9.1,0s-4.6-4-4.6-4s-0.5-3.7-4.7-3.7c-2.2-0.1-4.2-0.1-6,0c-1.8,1.3-3.5,2.6-5.2,4
			c2.6,0,3.3,1,5.5,1c3.9,0,2.7,5,5.9,5c2,0,3.5,0,4.6,0c6.8,0.5,5.2,5.5,10.1,5.5c0.8,0,1.4,0,1.5,0c0.2,0,0.4,0,0.9,0
			c9.5,0,3.5,7.1,12.1,7.1c6.1,0,18.4,0,23.4,0c6,0,1.4,5.5,11.1,5.5c5.2,0,4-0.2,8.3-0.2c2.6,0,10-0.1,11,0.9
			c0.4,0.1,0.8,0.2,1.3,0.3C129.2,49.8,127.6,48,124,48z"/>
		<path fill="#666666" d="M123.6,49.7c-4.3,0-8.9,0-14.2,0c-9.7,0-5.1-5.5-11.1-5.5c-5,0-17.3,0-23.4,0c-8.6,0-1.6-7.1-11.1-7.1
			c-0.5,0-0.7,0-0.9,0c-0.1,0-0.2,0-0.2,0c-0.2,0-0.6,0-1.3,0c-4.9,0-2.3-5-9.1-5.5c-1,0-2.5,0-4.6,0c-3.2,0-2-5-5.9-5
			c-2.2,0-4.9,0-7.5,0c-1.2,1-2.4,2.1-3.6,3.2c2.9,0,6,0,7.2,0c4.6,0,2.2,4.9,7.3,4.9c1.7,0,2.9,0,4.8,0c5.4,0,5.5,5.3,5.5,5.3
			s0,3.9,5.3,3.9c5.6,0,2.2,4.4,8.7,4.4c6.5,0,5,0,23.8,0c6.4,0,2.6,3.8,8.6,3.8c2.6,0,7.6,0,12.1,0c1.7-0.9,4-1.5,6.8-1.6
			c1.9,0.1,4.9,0.3,7.9,0.9C127.8,50.4,126.2,49.7,123.6,49.7z"/>
	</g>
	<g id="_x3C_Rubber_x3E__1_">
		<path fill="#4FB4E2" d="M142.3,116.4c0,0,0-31.8,0-52.3c0-12.3-15.6-13.5-21.5-13.9c-12,0.2-12.9,10.5-12.9,10.5V147l28.1-22.6
			L142.3,116.4z"/>
		<polygon fill="#0091CC" points="142.3,116.4 142.3,79.1 107.9,79.1 107.9,119.1 139.9,119.1 		"/>
		<rect x="107.9" y="88.4" fill="#0063A8" width="6.9" height="21.5"/>
		<rect x="121.6" y="88.4" fill="#0063A8" width="6.9" height="21.5"/>
		<rect x="135.3" y="88.4" fill="#0063A8" width="6.9" height="21.5"/>
		<path fill="#0063A8" d="M119.7,83.8c0,1.1-0.9,2-2,2c-1.1,0-2-0.9-2-2c0-1.1,0.9-2,2-2C118.8,81.7,119.7,82.7,119.7,83.8z"/>
		<path fill="#0063A8" d="M134.5,83.8c0,1.1-0.9,2-2,2c-1.1,0-2-0.9-2-2c0-1.1,0.9-2,2-2C133.6,81.7,134.5,82.7,134.5,83.8z"/>
		<path fill="#0063A8" d="M119.7,114.6c0,1.1-0.9,2-2,2c-1.1,0-2-0.9-2-2c0-1.1,0.9-2,2-2C118.8,112.6,119.7,113.5,119.7,114.6z"/>
		<path fill="#0063A8" d="M134.5,114.6c0,1.1-0.9,2-2,2c-1.1,0-2-0.9-2-2c0-1.1,0.9-2,2-2C133.6,112.6,134.5,113.5,134.5,114.6z"/>
		<polygon fill="#003F7D" points="136.7,123.7 107.9,125.1 107.9,119.1 139,119.1 		"/>
		<path fill="#BDE4F7" d="M127,53.4c2-0.9,13,1.2,13.6,10.4c0,2.3,0,7.5,0,9.1c0,1.6-2.1,1.7-2.4,0c-0.3-3.3-0.2-5.7-0.3-7.1
			c-0.2-3.7-1.6-9.4-11.6-10.4C125.4,55.4,125,54.3,127,53.4z"/>
	</g>
	<g id="_x3C_Pencil_x3E__1_">
		<path fill="#0063A8" d="M107.8,91.6c-2,1.3-2.1,1.4-4.2,2.7c-2.1,1.4-4.3,0-4.3,0s-2-1.3-4.2-2.7c-0.8-0.5-1.6-0.7-2.3-0.6
			c-0.7,0-1.5,0.1-2.3,0.6c-2.2,1.4-4.2,2.7-4.2,2.7s-2.1,1.4-4.3,0c-2.1-1.4-2.2-1.5-4.2-2.7c-2-1.3-2.1,0-2.1,0v2.7v58.4l34.4-7.1
			V94.3v-2.7C109.9,91.6,109.8,90.3,107.8,91.6z"/>
		<path fill="#4FB4E2" d="M77.7,92.6c2,1.3,2.1,1.4,4.2,2.7c2.1,1.4,4.3,0,4.3,0s2-1.3,4.2-2.7c0.8-0.5,1.6-0.7,2.3-0.6
			c0.7,0,1.5,0.1,2.3,0.6c2.2,1.4,4.2,2.7,4.2,2.7s2.1,1.4,4.3,0c2.1-1.4,2.2-1.5,4.2-2.7c1.6-1.1,2-1.4,2.1-1.1L98.2,41.1
			l-11.6,1.7l-11,48.7C75.7,91.2,76.1,91.5,77.7,92.6z"/>
		<path fill="#003F7D" d="M77.3,96.4c2,1.3,1.3,0.8,3.4,2.2c2.1,1.4,4.3,0,4.3,0s2-1.3,4.2-2.7c0.8-0.5,1.6-1.1,2.3-1
			c0.7,0,1.5,0.1,2.3,0.6c0.7,0.4,5,2.3,5,2.3s2.1,1,4.3-0.4c2.1-1.2,6.5-4.4,6.8-4.4v-0.6v-0.7c0,0-0.1-1.3-2.1,0
			c-2,1.3-2.1,1.4-4.2,2.7c-2.1,1.4-4.3,0-4.3,0s-2-1.3-4.2-2.7c-0.8-0.5-1.6-0.7-2.3-0.6c-0.7,0-1.5,0.1-2.3,0.6
			c-2.2,1.4-4.2,2.7-4.2,2.7s-2.1,1.4-4.3,0c-2.1-1.4-2.2-1.5-4.2-2.7c-2-1.3-2.1,0-2.1,0v1.2C75.6,92.8,77.1,95.9,77.3,96.4z"/>
		<path fill="#BDE4F7" d="M96.9,45l8.8,40.8c0,0-1.8,3.1-5.3,1.7c0-3.7-5.2-40.6-5.2-40.6S96.1,46.6,96.9,45z"/>
	</g>
	<g id="_x3C_Pen_x3E__1_">
		<path fill="#0081C7" d="M82.7,107.2L56.5,54.3c0,0-3.1-6.9-3.1,0.7c0,7.6,0,50.1,0,50.1c1.7,0.5,3,2.1,3,4c0,2.3-1.9,4.2-4.2,4.2
			h0c-2.3,0-4.2-1.9-4.2-4.2c0-1.9,1.3-3.5,3-4c0,0,0-42.5,0-50.1c0-7.6-3.1-0.7-3.1-0.7l-26.1,52.9c0,0-0.7,3.6,0.6,4.6
			c3.2,2.4,9.3,7.8,11.8,15.5l35.8,0.6c2.5-8,8.7-13.6,12-16.1C83.4,110.8,82.7,107.2,82.7,107.2z"/>
		<path fill="#0063A8" d="M35.1,130.6l34.3,0c0.2-0.9,0.4-1.8,0.7-2.7l-35.8-0.6C34.6,128.3,34.9,129.4,35.1,130.6z"/>
		<path fill="#4FB4E2" d="M76.2,105.5c-0.9-2-11.3-26-16.4-37.7c-1.5-2.6-2.2-0.7-1.2,1.7c1.1,2.3,6.1,27.2,11.2,38.9
			C70.9,110.7,77.3,108.2,76.2,105.5z"/>
		<path fill="#4FB4E2" d="M79.4,139c0.8,0,1.4-0.8,1.4-1.8v-5.5c0-1-0.6-1.8-1.4-1.8H30.4c3.5,3.4,7.4,6.5,11.5,9.1H79.4z"/>
		<path fill="#0081C7" d="M69.2,143.8l-15.6,1.1c5,2,10.2,3.4,15.6,4.2V143.8z"/>
		<path fill="#003F7D" d="M69.2,143.8V139H42c3.7,2.3,7.5,4.3,11.6,5.9L69.2,143.8z"/>
	</g>
	<path fill="#0091CC" d="M77.9,1.4c-18.6,0-36.8,6.9-50.7,19.3C13.9,32.5,4.9,48.9,2.3,66.5c-2.5,16.9,0.7,34.5,9.2,49.4
		c8.9,15.5,23.2,27.6,39.9,33.8c15.5,5.7,32.7,6.3,48.5,1.5c13.2-3.9,25.2-11.5,34.4-21.6c9.3-10.2,15.8-22.8,18.6-36.4
		c2.9-14,1.7-28.7-3.2-42c-4.8-12.8-13-24.2-23.6-32.8C115.4,9.7,102.2,4,88.5,2.1C85,1.7,81.5,1.4,77.9,1.4z M79.2,149.8
		c-17.5,0-34.6-6.8-47.4-18.7c-10.8-10-18.3-23.4-21.1-37.9C7.6,77.5,10.1,61,17.7,47c8-14.9,21.6-26.6,37.5-32.5
		c14.2-5.2,30.1-5.6,44.6-1.2c11.9,3.7,22.7,10.6,31.1,19.8c8.4,9.3,14.3,20.8,16.8,33.1c2.6,12.7,1.5,26.1-3.1,38.2
		c-4.4,11.7-11.9,22-21.6,29.8c-9.8,7.9-21.7,13.1-34.2,14.8C85.6,149.6,82.4,149.8,79.2,149.8z"/>
	<g id="_x3C_Smoke_x5F_1_x3E__1_">
		<path fill="#003F7D" d="M41.5,21.2c0,0,7.5-4.6,8.6-4.6c-7.4-0.3-17.4-0.4-17.4-0.4s-3.4,2.5-6.1,5C27.8,21.2,41.5,21.2,41.5,21.2
			z"/>
		<path fill="#C6C7C8" d="M93.3,21c-0.7-2-2.6-4.3-6.3-4.3c-4.3,0-6,0-6,0s-7,0.6-7-4.7c0-0.6-0.1-1.1-0.2-1.6
			C73,7.9,70.4,6.6,67,6.6c-2.4,0-10.6,0-16.9,0c-4.3,1.7-8.4,3.7-12.3,6.2c6.5,0,22.2,1,22.6,1c6,0,1.4,5.5,11.1,5.5
			c5.2,0,11.1-0.6,15.5-0.6c2.9,0,4.5,0.8,5.4,2C92.6,20.2,93,20.5,93.3,21z"/>
		<path fill="#666666" d="M86.6,18.3c-4.3,0-8.9,0-14.2,0c-9.7,0-5.1-5.5-11.1-5.5c-0.4,0-17.1,0-23.6,0c-2.1,1.3-4.1,2.7-6.1,4.2
			c1.3,0,21.8,0,24.6,0c6.4,0,2.6,3.8,8.6,3.8c4.5,0,15.8,0,19.8,0c4.4,0,5.9,2.4,6.2,4.1c0-0.1,0.3-0.6,0.3-0.7
			c0.4-2,0.7-2.6,1.1-3.2C91.5,19.6,89.5,18.3,86.6,18.3z"/>
	</g>
	<g id="_x3C_Smoke_x5F_3_x3E__1_">
		<path fill="#666666" d="M25.1,44c6.4,0,2.6,3.8,8.6,3.8c4.5,0,6.2,0,10.2,0c4.3,0,5.7,2.1,6,3.7c0.4-0.2,0.8,0.2,1,1.4
			c0.2-0.8,2.2-7.9-5.5-7.9c-4.3,0-1.8,0-7,0c-9.7,0-4.8-5.6-10.8-5.6c-1.3,0-3.4,0-5.1,0c-1,1.4-2.3,3.2-3.1,4.7
			C21.1,44,23,44,25.1,44z"/>
		<path fill="#003F7D" d="M24.3,37c-2.4,0-9.8,0-10.9,0c-1.2,1.8-2.3,3.7-3.3,5.7c2.1,0,8.6,0,10.2,0C21.5,40.7,22.8,38.8,24.3,37z"
			/>
		<path fill="#C6C7C8" d="M53.5,105.2c0,0,0-42.5,0-50.1c0-1.9,0.2-2.8,0.4-3.3c0.2-2.5-0.1-8.1-6.6-8.1c-4.3,0-4.4,0-4.4,0
			s-7,0.6-7-4.7c0-3.5-2.9-5.4-5.3-5.4c-1,0-15.1,0-15.1,0c-2.3,3.2-3.9,6.2-3.9,6.2s13.8,0,15.1,0c6,0,1.4,5.5,11.1,5.5
			c5.2,0,2.5,0,6.8,0c7.8,0,6.5,6.7,6.3,7.5C51,53.4,51,54.1,51,55c0,7.6,0,50.1,0,50.1c-1.7,0.5-2.9,2.1-2.9,4
			c0,2.3,1.9,4.2,4.2,4.2h0c2.3,0,4.2-1.9,4.2-4.2C56.4,107.3,55.2,105.7,53.5,105.2z"/>
	</g>
	<path fill="#0081C7" d="M94.3,24.2c-1.3-5.4-2.1-5.6-3.4,0c-1.3,5.7-4.3,18.6-4.3,18.6s5.2,5.8,11.6-1.7
		C97.2,37,95.6,29.6,94.3,24.2z"/>
	<path fill="#4FB4E2" d="M93.2,28.2c0.1-2.5,0.8-0.7,0.8-0.7l2.1,12.3c0,0-1.1,2.1-2.9,2.2C93.2,38.3,93.1,31.8,93.2,28.2z"/>
</g>
</svg>
