<?xml version="1.0" encoding="utf-8"?>
<!-- Generator: Adobe Illustrator 22.1.0, SVG Export Plug-In . SVG Version: 6.00 Build 0)  -->
<svg version="1.1" id="Ebene_1" xmlns="http://www.w3.org/2000/svg" xmlns:xlink="http://www.w3.org/1999/xlink" x="0px" y="0px"
	 viewBox="0 0 300 300" style="enable-background:new 0 0 300 300;" xml:space="preserve">
<style type="text/css">
	.st0{fill-rule:evenodd;clip-rule:evenodd;fill:#FFFFFF;}
</style>
<g>
	<g>
		<path class="st0" d="M150,242.2c-50.8,0-92.2-41.3-92.2-92.2S99.2,57.8,150,57.8s92.2,41.3,92.2,92.2S200.8,242.2,150,242.2z
			 M227.7,162.6c-2.7-0.9-24.4-7.3-49-3.4c10.3,28.3,14.5,51.3,15.3,56.1C211.6,203.4,224.2,184.5,227.7,162.6z M180.7,222.6
			c-1.2-6.9-5.7-31-16.8-59.7c-0.2,0.1-0.3,0.1-0.5,0.2c-44.4,15.5-60.3,46.3-61.8,49.2c13.3,10.4,30.1,16.6,48.3,16.6
			C160.9,228.8,171.3,226.6,180.7,222.6z M91.5,202.8c1.8-3.1,23.4-38.8,64-51.9c1-0.3,2.1-0.6,3.1-0.9c-2-4.5-4.1-8.9-6.4-13.4
			c-39.3,11.8-77.5,11.3-80.9,11.2c0,0.8,0,1.6,0,2.4C71.3,170.3,78.9,188.8,91.5,202.8z M72.9,134c3.5,0,36,0.2,72.8-9.6
			c-13-23.2-27.1-42.7-29.2-45.5C94.5,89.3,78.1,109.6,72.9,134z M131.6,73.6c2.2,2.9,16.5,22.4,29.4,46.1
			c28-10.5,39.8-26.4,41.3-28.4C188.3,78.9,170,71.4,150,71.4C143.6,71.4,137.5,72.2,131.6,73.6z M210.9,100.3
			c-1.7,2.2-14.8,19.2-44,31c1.8,3.7,3.6,7.6,5.2,11.4c0.6,1.4,1.1,2.7,1.7,4.1c26.2-3.3,52.2,2,54.8,2.5
			C228.5,130.8,221.9,113.7,210.9,100.3z"/>
	</g>
</g>
</svg>
