<?xml version="1.0" encoding="utf-8"?>
<!-- Generator: Adobe Illustrator 14.0.0, SVG Export Plug-In . SVG Version: 6.00 Build 43363)  -->
<!DOCTYPE svg PUBLIC "-//W3C//DTD SVG 1.1//EN" "http://www.w3.org/Graphics/SVG/1.1/DTD/svg11.dtd">
<svg version="1.1"
	 id="Ebene_1" xmlns:dc="http://purl.org/dc/elements/1.1/" xmlns:rdf="http://www.w3.org/1999/02/22-rdf-syntax-ns#" xmlns:cc="http://creativecommons.org/ns#"
	 xmlns="http://www.w3.org/2000/svg" xmlns:xlink="http://www.w3.org/1999/xlink" x="0px" y="0px" width="300px" height="299.99px"
	 viewBox="0 -27.901 300 299.99" enable-background="new 0 -27.901 300 299.99" xml:space="preserve">
<g transform="translate(-539.18 -568.86)">
	<path fill="#FFFFFF" d="M652.077,772.225c75.476,0,116.75-62.528,116.75-116.75c0-1.776-0.037-3.545-0.117-5.305
		c8.013-5.791,14.976-13.02,20.469-21.248c-7.353,3.269-15.264,5.469-23.563,6.461c8.472-5.08,14.975-13.116,18.043-22.696
		c-7.928,4.7-16.708,8.116-26.055,9.961c-7.488-7.977-18.148-12.964-29.953-12.964c-22.659,0-41.034,18.376-41.034,41.027
		c0,3.22,0.359,6.353,1.063,9.355c-34.104-1.716-64.344-18.043-84.582-42.871c-3.524,6.063-5.556,13.107-5.556,20.623
		c0,14.236,7.244,26.804,18.26,34.156c-6.731-0.208-13.056-2.056-18.583-5.132c-0.006,0.173-0.006,0.341-0.006,0.524
		c0,19.871,14.144,36.464,32.919,40.224c-3.447,0.939-7.075,1.443-10.819,1.443c-2.641,0-5.212-0.259-7.712-0.74
		c5.224,16.304,20.372,28.169,38.331,28.5c-14.044,11.008-31.735,17.564-50.964,17.564c-3.309,0-6.576-0.188-9.787-0.568
		c18.16,11.641,39.723,18.433,62.899,18.433"/>
</g>
</svg>
